<svg width="55" height="60" viewBox="0 0 55 60" fill="none" xmlns="http://www.w3.org/2000/svg">
<path d="M16.4946 60C9.13643 57.9356 5.45733 53.1834 5.45733 45.7435V39.6423C5.45733 35.3296 3.63822 33.1732 0 33.1732V26.8268C3.55646 26.8268 5.37557 24.7931 5.45733 20.7256V14.2259C5.45733 10.4446 6.37711 7.38886 8.21666 5.05876C10.0562 2.72867 12.8155 1.04241 16.4946 0L18.2115 4.93613C16.6581 5.50843 15.4829 6.50996 14.6857 7.94073C13.8886 9.35105 13.4696 11.3132 13.4287 13.8273V20.2657C13.4287 24.885 11.5994 28.1247 7.94073 29.9847C11.5994 31.8651 13.4287 35.1252 13.4287 39.7649V46.2647C13.5309 51.0475 15.1252 53.9704 18.2115 55.0332L16.4946 60Z" fill="#00509D"/>
<path d="M35.9325 55.0332C39.0393 53.9295 40.6336 50.9658 40.7154 46.1421V39.6423C40.7154 35.023 42.5856 31.814 46.326 30.0153C42.5856 28.2167 40.7154 24.9566 40.7154 20.2351V13.8273C40.6336 9.0649 39.0393 6.10118 35.9325 4.93613L37.6495 0C41.3081 1.02197 44.0572 2.69801 45.8968 5.0281C47.7363 7.33776 48.6663 10.373 48.6868 14.1339V20.7256C48.7685 24.7931 50.5876 26.8268 54.1441 26.8268V33.1732C50.5059 33.1732 48.6868 35.3091 48.6868 39.581V46.234C48.5232 53.3878 44.8441 57.9765 37.6495 60L35.9325 55.0332Z" fill="#00509D"/>
</svg>
