<svg width="54" height="66" viewBox="0 0 54 66" fill="none" xmlns="http://www.w3.org/2000/svg">
<path d="M30 3H9C7.4087 3 5.88258 3.63214 4.75736 4.75736C3.63214 5.88258 3 7.4087 3 9V57C3 58.5913 3.63214 60.1174 4.75736 61.2426C5.88258 62.3679 7.4087 63 9 63H45C46.5913 63 48.1174 62.3679 49.2426 61.2426C50.3679 60.1174 51 58.5913 51 57V24L30 3Z" stroke="#CA4425" stroke-width="4.16667" stroke-linecap="round" stroke-linejoin="round"/>
<path d="M30 3V24H51" stroke="#CA4425" stroke-width="4.16667" stroke-linecap="round" stroke-linejoin="round"/>
<path d="M9.07159 40.8346C9.07159 40.5651 9.16144 40.3463 9.34113 40.1784C9.52472 40.0104 9.75323 39.9264 10.0267 39.9264C10.304 39.9264 10.5325 40.0104 10.7122 40.1784C10.8958 40.3463 10.9876 40.5651 10.9876 40.8346C10.9876 41.1003 10.8978 41.317 10.7181 41.485C10.5384 41.6491 10.3079 41.7311 10.0267 41.7311C9.74933 41.7311 9.52081 41.6491 9.34113 41.485C9.16144 41.317 9.07159 41.1003 9.07159 40.8346ZM14.345 38.6608V41.6667H12.5872V33.1354H15.9153C16.556 33.1354 17.1185 33.2526 17.6028 33.487C18.0911 33.7213 18.4661 34.0553 18.7278 34.4889C18.9896 34.9186 19.1204 35.4088 19.1204 35.9596C19.1204 36.7956 18.8333 37.4557 18.2591 37.9401C17.6888 38.4206 16.8978 38.6608 15.886 38.6608H14.345ZM14.345 37.237H15.9153C16.3802 37.237 16.7337 37.1276 16.9759 36.9088C17.222 36.6901 17.345 36.3776 17.345 35.9713C17.345 35.5534 17.222 35.2155 16.9759 34.9577C16.7298 34.6999 16.39 34.567 15.9564 34.5592H14.345V37.237ZM22.0911 38.6608V41.6667H20.3333V33.1354H23.6614C24.3021 33.1354 24.8646 33.2526 25.3489 33.487C25.8372 33.7213 26.2122 34.0553 26.4739 34.4889C26.7357 34.9186 26.8665 35.4088 26.8665 35.9596C26.8665 36.7956 26.5794 37.4557 26.0052 37.9401C25.4349 38.4206 24.6439 38.6608 23.6321 38.6608H22.0911ZM22.0911 37.237H23.6614C24.1263 37.237 24.4798 37.1276 24.722 36.9088C24.9681 36.6901 25.0911 36.3776 25.0911 35.9713C25.0911 35.5534 24.9681 35.2155 24.722 34.9577C24.4759 34.6999 24.136 34.567 23.7025 34.5592H22.0911V37.237ZM34.5013 34.5592H31.888V41.6667H30.1302V34.5592H27.5521V33.1354H34.5013V34.5592ZM38.5618 36.0768L40.1614 33.1354H42.1829L39.6985 37.3659L42.2474 41.6667H40.2025L38.5618 38.6784L36.9212 41.6667H34.8763L37.4251 37.3659L34.9407 33.1354H36.9622L38.5618 36.0768Z" fill="#CA4425"/>
</svg>
