<svg width="1098" height="396" viewBox="0 0 1098 396" fill="none" xmlns="http://www.w3.org/2000/svg">
<path d="M508.288 214.232C508.288 218.28 508.024 222.328 507.496 226.376H409.552C410.08 234.472 412.28 240.544 416.152 244.592C420.2 248.464 425.304 250.4 431.464 250.4C440.088 250.4 446.248 246.528 449.944 238.784H505.12C502.832 248.992 498.344 258.144 491.656 266.24C485.144 274.16 476.872 280.408 466.84 284.984C456.808 289.56 445.72 291.848 433.576 291.848C418.968 291.848 405.944 288.768 394.504 282.608C383.24 276.448 374.352 267.648 367.84 256.208C361.504 244.768 358.336 231.304 358.336 215.816C358.336 200.328 361.504 186.952 367.84 175.688C374.176 164.248 382.976 155.448 394.24 149.288C405.68 143.128 418.792 140.048 433.576 140.048C448.184 140.048 461.12 143.04 472.384 149.024C483.648 155.008 492.448 163.632 498.784 174.896C505.12 185.984 508.288 199.096 508.288 214.232ZM455.488 201.296C455.488 194.96 453.376 190.032 449.152 186.512C444.928 182.816 439.648 180.968 433.312 180.968C426.976 180.968 421.784 182.728 417.736 186.248C413.688 189.592 411.048 194.608 409.816 201.296H455.488ZM581.208 168.032C587.016 159.584 594.056 152.896 602.328 147.968C610.6 143.04 619.488 140.576 628.992 140.576V195.752H614.472C603.208 195.752 594.848 197.952 589.392 202.352C583.936 206.752 581.208 214.408 581.208 225.32V290H529.464V141.896H581.208V168.032ZM734.926 245.912V290H712.486C674.646 290 655.726 271.256 655.726 233.768V184.928H637.51V141.896H655.726V105.992H707.734V141.896H734.662V184.928H707.734V234.56C707.734 238.608 708.614 241.512 710.374 243.272C712.31 245.032 715.478 245.912 719.878 245.912H734.926ZM784.795 128.168C775.643 128.168 768.251 125.704 762.619 120.776C757.163 115.672 754.435 109.336 754.435 101.768C754.435 94.024 757.163 87.6 762.619 82.496C768.251 77.392 775.643 74.84 784.795 74.84C793.771 74.84 800.987 77.392 806.443 82.496C812.075 87.6 814.891 94.024 814.891 101.768C814.891 109.336 812.075 115.672 806.443 120.776C800.987 125.704 793.771 128.168 784.795 128.168ZM810.403 141.896V290H758.659V141.896H810.403ZM919.862 184.928H896.63V290H844.622V184.928H828.518V141.896H844.622V140.576C844.622 121.568 850.166 107.048 861.254 97.016C872.518 86.808 888.622 81.704 909.566 81.704C913.79 81.704 917.046 81.792 919.334 81.968V126.056C917.926 125.88 915.99 125.792 913.526 125.792C907.894 125.792 903.758 127.112 901.118 129.752C898.478 132.216 896.982 136.264 896.63 141.896H919.862V184.928ZM1097.81 141.896L1003.83 360.488H947.594L982.97 283.664L922.25 141.896H979.802L1010.95 225.848L1041.05 141.896H1097.81Z" fill="white"/>
<circle cx="176" cy="193.6" r="176" fill="white"/>
<path d="M87.6479 196.544C87.6479 178.24 91.4319 161.96 98.9999 147.704C106.744 133.272 117.656 122.096 131.736 114.176C145.816 106.08 162.008 102.032 180.312 102.032C203.544 102.032 223.08 108.28 238.92 120.776C254.76 133.096 264.968 149.904 269.544 171.2H213.84C210.496 164.16 205.832 158.792 199.848 155.096C194.04 151.4 187.264 149.552 179.52 149.552C167.552 149.552 157.96 153.864 150.744 162.488C143.704 170.936 140.184 182.288 140.184 196.544C140.184 210.976 143.704 222.504 150.744 231.128C157.96 239.576 167.552 243.8 179.52 243.8C187.264 243.8 194.04 241.952 199.848 238.256C205.832 234.56 210.496 229.192 213.84 222.152H269.544C264.968 243.448 254.76 260.344 238.92 272.84C223.08 285.16 203.544 291.32 180.312 291.32C162.008 291.32 145.816 287.36 131.736 279.44C117.656 271.344 106.744 260.168 98.9999 245.912C91.4319 231.48 87.6479 215.024 87.6479 196.544Z" fill="#00509D"/>
</svg>
